<svg xmlns="http://www.w3.org/2000/svg" width="720" height="1280" viewBox="0 0 720 1280" role="img" aria-labelledby="title">
  <title>HUB-IT mobile screenshot</title>
  <defs>
    <linearGradient id="bg" x1="0" y1="0" x2="1" y2="1">
      <stop offset="0%" stop-color="#0f1722"/>
      <stop offset="100%" stop-color="#163a63"/>
    </linearGradient>
  </defs>
  <rect width="720" height="1280" fill="url(#bg)"/>
  <rect x="88" y="72" width="544" height="1136" rx="46" fill="#f5f8fb"/>
  <rect x="88" y="72" width="544" height="108" rx="46" fill="#ffffff"/>
  <rect x="126" y="118" width="180" height="22" rx="11" fill="#1f2937"/>
  <rect x="126" y="214" width="468" height="112" rx="24" fill="#ffffff"/>
  <rect x="126" y="354" width="468" height="112" rx="24" fill="#ffffff"/>
  <rect x="126" y="494" width="468" height="112" rx="24" fill="#ffffff"/>
  <rect x="126" y="634" width="468" height="380" rx="24" fill="#ffffff"/>
  <rect x="156" y="244" width="180" height="18" rx="9" fill="#0f1722"/>
  <rect x="156" y="276" width="238" height="14" rx="7" fill="#dbe7f5"/>
  <rect x="156" y="384" width="166" height="18" rx="9" fill="#0f1722"/>
  <rect x="156" y="416" width="262" height="14" rx="7" fill="#dbe7f5"/>
  <rect x="156" y="524" width="150" height="18" rx="9" fill="#0f1722"/>
  <rect x="156" y="556" width="226" height="14" rx="7" fill="#dbe7f5"/>
  <rect x="156" y="668" width="210" height="20" rx="10" fill="#2563eb"/>
  <rect x="156" y="714" width="366" height="16" rx="8" fill="#dbe7f5"/>
  <rect x="156" y="744" width="342" height="16" rx="8" fill="#dbe7f5"/>
  <rect x="156" y="774" width="320" height="16" rx="8" fill="#dbe7f5"/>
  <text x="126" y="1080" fill="#0f1722" font-size="30" font-family="Segoe UI, Arial, sans-serif" font-weight="700">HUB-IT</text>
  <text x="126" y="1116" fill="#64748b" font-size="22" font-family="Segoe UI, Arial, sans-serif">Установленная PWA на телефоне</text>
</svg>
